<?xml version="1.0" encoding="UTF-8"?>
<svg width="25px" height="25px" viewBox="0 0 25 25" version="1.1" xmlns="http://www.w3.org/2000/svg" xmlns:xlink="http://www.w3.org/1999/xlink">
    <title>icon-search</title>
    <defs>
        <filter x="-70.6%" y="-70.6%" width="241.2%" height="241.2%" filterUnits="objectBoundingBox" id="filter-1">
            <feOffset dx="0" dy="2" in="SourceAlpha" result="shadowOffsetOuter1"></feOffset>
            <feGaussianBlur stdDeviation="2" in="shadowOffsetOuter1" result="shadowBlurOuter1"></feGaussianBlur>
            <feColorMatrix values="0 0 0 0 0   0 0 0 0 0   0 0 0 0 0  0 0 0 0.5 0" type="matrix" in="shadowBlurOuter1" result="shadowMatrixOuter1"></feColorMatrix>
            <feMerge>
                <feMergeNode in="shadowMatrixOuter1"></feMergeNode>
                <feMergeNode in="SourceGraphic"></feMergeNode>
            </feMerge>
        </filter>
    </defs>
    <g id="Pages" stroke="none" stroke-width="1" fill="none" fill-rule="evenodd" opacity="0.3">
        <g id="Index" transform="translate(-363.000000, -10.000000)" fill="#FFFFFF" fill-rule="nonzero">
            <g id="top-menu" transform="translate(-40.000000, 0.000000)">
                <g id="icon-search" filter="url(#filter-1)" transform="translate(407.000000, 12.000000)">
                    <g id="Shape">
                        <path d="M17,15.586 L13.458,12.044 C14.4580739,10.7403117 15.0000882,9.14309188 15,7.5 C15,3.35786438 11.6421356,0 7.5,0 C3.35786438,0 0,3.35786438 0,7.5 C0,11.6421356 3.35786438,15 7.5,15 C9.21,15 10.782,14.421 12.044,13.458 L15.586,17 L17,15.586 Z M2,7.5 C2,4.467 4.467,2 7.5,2 C10.532,2 13,4.467 13,7.5 C13,10.532 10.532,13 7.5,13 C4.46380465,12.9966932 2.0033068,10.5361953 2,7.5 Z"></path>
                    </g>
                </g>
            </g>
        </g>
    </g>
</svg>